<?xml version="1.0" encoding="UTF-8" standalone="no"?>
<!-- Created with Inkscape (http://www.inkscape.org/) -->

<svg
   version="1.1"
   id="svg1"
   width="880"
   height="880"
   viewBox="0 0 880 880"
   sodipodi:docname="sandwich-with-eggs-and-tomatoes.svg"
   inkscape:version="1.3.2 (091e20e, 2023-11-25, custom)"
   xmlns:inkscape="http://www.inkscape.org/namespaces/inkscape"
   xmlns:sodipodi="http://sodipodi.sourceforge.net/DTD/sodipodi-0.dtd"
   xmlns="http://www.w3.org/2000/svg"
   xmlns:svg="http://www.w3.org/2000/svg">
  <defs
     id="defs1">
    <clipPath
       clipPathUnits="userSpaceOnUse"
       id="clipPath2">
      <path
         d="M 0,660 H 660 V 0 H 0 Z"
         transform="translate(-116.6157,-341.19191)"
         id="path2" />
    </clipPath>
    <clipPath
       clipPathUnits="userSpaceOnUse"
       id="clipPath4">
      <path
         d="M 0,660 H 660 V 0 H 0 Z"
         transform="translate(-110.4546,-371.72711)"
         id="path4" />
    </clipPath>
    <clipPath
       clipPathUnits="userSpaceOnUse"
       id="clipPath6">
      <path
         d="M 0,660 H 660 V 0 H 0 Z"
         transform="translate(-101.3379,-265.97271)"
         id="path6" />
    </clipPath>
    <clipPath
       clipPathUnits="userSpaceOnUse"
       id="clipPath8">
      <path
         d="M 0,660 H 660 V 0 H 0 Z"
         transform="translate(-378.89941,-478.69731)"
         id="path8" />
    </clipPath>
    <clipPath
       clipPathUnits="userSpaceOnUse"
       id="clipPath10">
      <path
         d="M 0,660 H 660 V 0 H 0 Z"
         transform="translate(-76.351599,-396.66461)"
         id="path10" />
    </clipPath>
    <clipPath
       clipPathUnits="userSpaceOnUse"
       id="clipPath12">
      <path
         d="M 0,660 H 660 V 0 H 0 Z"
         transform="translate(-76.351599,-400.40871)"
         id="path12" />
    </clipPath>
    <clipPath
       clipPathUnits="userSpaceOnUse"
       id="clipPath14">
      <path
         d="M 0,660 H 660 V 0 H 0 Z"
         transform="translate(-83.759305,-387.57671)"
         id="path14" />
    </clipPath>
    <clipPath
       clipPathUnits="userSpaceOnUse"
       id="clipPath16">
      <path
         d="M 0,660 H 660 V 0 H 0 Z"
         transform="translate(-510.43361,-420.21001)"
         id="path16" />
    </clipPath>
    <clipPath
       clipPathUnits="userSpaceOnUse"
       id="clipPath18">
      <path
         d="M 0,660 H 660 V 0 H 0 Z"
         transform="translate(-150.8062,-387.47951)"
         id="path18" />
    </clipPath>
    <clipPath
       clipPathUnits="userSpaceOnUse"
       id="clipPath20">
      <path
         d="M 0,660 H 660 V 0 H 0 Z"
         transform="translate(-212.9683,-379.66991)"
         id="path20" />
    </clipPath>
    <clipPath
       clipPathUnits="userSpaceOnUse"
       id="clipPath22">
      <path
         d="M 0,660 H 660 V 0 H 0 Z"
         transform="translate(-434.64061,-425.41501)"
         id="path22" />
    </clipPath>
    <clipPath
       clipPathUnits="userSpaceOnUse"
       id="clipPath24">
      <path
         d="M 0,660 H 660 V 0 H 0 Z"
         transform="translate(-322.22951,-482.09721)"
         id="path24" />
    </clipPath>
    <clipPath
       clipPathUnits="userSpaceOnUse"
       id="clipPath26">
      <path
         d="M 0,660 H 660 V 0 H 0 Z"
         transform="translate(-198.3843,-438.03561)"
         id="path26" />
    </clipPath>
    <clipPath
       clipPathUnits="userSpaceOnUse"
       id="clipPath28">
      <path
         d="M 0,660 H 660 V 0 H 0 Z"
         transform="translate(-198.3867,-371.29881)"
         id="path28" />
    </clipPath>
    <clipPath
       clipPathUnits="userSpaceOnUse"
       id="clipPath30">
      <path
         d="M 0,660 H 660 V 0 H 0 Z"
         transform="translate(-171.6997,-436.73491)"
         id="path30" />
    </clipPath>
    <clipPath
       clipPathUnits="userSpaceOnUse"
       id="clipPath32">
      <path
         d="M 0,660 H 660 V 0 H 0 Z"
         transform="translate(-168.5098,-424.64401)"
         id="path32" />
    </clipPath>
    <clipPath
       clipPathUnits="userSpaceOnUse"
       id="clipPath34">
      <path
         d="M 0,660 H 660 V 0 H 0 Z"
         transform="translate(-160.4175,-417.99321)"
         id="path34" />
    </clipPath>
    <clipPath
       clipPathUnits="userSpaceOnUse"
       id="clipPath36">
      <path
         d="M 0,660 H 660 V 0 H 0 Z"
         transform="translate(-159.26031,-409.78861)"
         id="path36" />
    </clipPath>
    <clipPath
       clipPathUnits="userSpaceOnUse"
       id="clipPath38">
      <path
         d="M 0,660 H 660 V 0 H 0 Z"
         transform="translate(-162.4204,-401.23631)"
         id="path38" />
    </clipPath>
    <clipPath
       clipPathUnits="userSpaceOnUse"
       id="clipPath40">
      <path
         d="M 0,660 H 660 V 0 H 0 Z"
         transform="translate(-169.20171,-395.27691)"
         id="path40" />
    </clipPath>
    <clipPath
       clipPathUnits="userSpaceOnUse"
       id="clipPath42">
      <path
         d="M 0,660 H 660 V 0 H 0 Z"
         transform="translate(-221.54541,-436.73491)"
         id="path42" />
    </clipPath>
    <clipPath
       clipPathUnits="userSpaceOnUse"
       id="clipPath44">
      <path
         d="M 0,660 H 660 V 0 H 0 Z"
         transform="translate(-224.73681,-424.64401)"
         id="path44" />
    </clipPath>
    <clipPath
       clipPathUnits="userSpaceOnUse"
       id="clipPath46">
      <path
         d="M 0,660 H 660 V 0 H 0 Z"
         transform="translate(-232.8286,-417.99321)"
         id="path46" />
    </clipPath>
    <clipPath
       clipPathUnits="userSpaceOnUse"
       id="clipPath48">
      <path
         d="M 0,660 H 660 V 0 H 0 Z"
         transform="translate(-233.98731,-409.78861)"
         id="path48" />
    </clipPath>
    <clipPath
       clipPathUnits="userSpaceOnUse"
       id="clipPath50">
      <path
         d="M 0,660 H 660 V 0 H 0 Z"
         transform="translate(-230.82571,-401.23631)"
         id="path50" />
    </clipPath>
    <clipPath
       clipPathUnits="userSpaceOnUse"
       id="clipPath52">
      <path
         d="M 0,660 H 660 V 0 H 0 Z"
         transform="translate(-224.04441,-395.27691)"
         id="path52" />
    </clipPath>
    <clipPath
       clipPathUnits="userSpaceOnUse"
       id="clipPath54">
      <path
         d="M 0,660 H 660 V 0 H 0 Z"
         transform="translate(-456.31351,-448.66851)"
         id="path54" />
    </clipPath>
    <clipPath
       clipPathUnits="userSpaceOnUse"
       id="clipPath56">
      <path
         d="M 0,660 H 660 V 0 H 0 Z"
         transform="translate(-456.31641,-381.46631)"
         id="path56" />
    </clipPath>
    <clipPath
       clipPathUnits="userSpaceOnUse"
       id="clipPath58">
      <path
         d="M 0,660 H 660 V 0 H 0 Z"
         transform="translate(-429.44341,-447.35741)"
         id="path58" />
    </clipPath>
    <clipPath
       clipPathUnits="userSpaceOnUse"
       id="clipPath60">
      <path
         d="M 0,660 H 660 V 0 H 0 Z"
         transform="translate(-426.23051,-435.18261)"
         id="path60" />
    </clipPath>
    <clipPath
       clipPathUnits="userSpaceOnUse"
       id="clipPath62">
      <path
         d="M 0,660 H 660 V 0 H 0 Z"
         transform="translate(-418.08111,-428.48541)"
         id="path62" />
    </clipPath>
    <clipPath
       clipPathUnits="userSpaceOnUse"
       id="clipPath64">
      <path
         d="M 0,660 H 660 V 0 H 0 Z"
         transform="translate(-416.91701,-420.22221)"
         id="path64" />
    </clipPath>
    <clipPath
       clipPathUnits="userSpaceOnUse"
       id="clipPath66">
      <path
         d="M 0,660 H 660 V 0 H 0 Z"
         transform="translate(-420.09861,-411.61181)"
         id="path66" />
    </clipPath>
    <clipPath
       clipPathUnits="userSpaceOnUse"
       id="clipPath68">
      <path
         d="M 0,660 H 660 V 0 H 0 Z"
         transform="translate(-426.92481,-405.60891)"
         id="path68" />
    </clipPath>
    <clipPath
       clipPathUnits="userSpaceOnUse"
       id="clipPath70">
      <path
         d="M 0,660 H 660 V 0 H 0 Z"
         transform="translate(-479.63571,-447.35741)"
         id="path70" />
    </clipPath>
    <clipPath
       clipPathUnits="userSpaceOnUse"
       id="clipPath72">
      <path
         d="M 0,660 H 660 V 0 H 0 Z"
         transform="translate(-482.85061,-435.18261)"
         id="path72" />
    </clipPath>
    <clipPath
       clipPathUnits="userSpaceOnUse"
       id="clipPath74">
      <path
         d="M 0,660 H 660 V 0 H 0 Z"
         transform="translate(-490.99711,-428.48541)"
         id="path74" />
    </clipPath>
    <clipPath
       clipPathUnits="userSpaceOnUse"
       id="clipPath76">
      <path
         d="M 0,660 H 660 V 0 H 0 Z"
         transform="translate(-492.16501,-420.22221)"
         id="path76" />
    </clipPath>
    <clipPath
       clipPathUnits="userSpaceOnUse"
       id="clipPath78">
      <path
         d="M 0,660 H 660 V 0 H 0 Z"
         transform="translate(-488.98241,-411.61181)"
         id="path78" />
    </clipPath>
    <clipPath
       clipPathUnits="userSpaceOnUse"
       id="clipPath80">
      <path
         d="M 0,660 H 660 V 0 H 0 Z"
         transform="translate(-482.15331,-405.60891)"
         id="path80" />
    </clipPath>
    <clipPath
       clipPathUnits="userSpaceOnUse"
       id="clipPath82">
      <path
         d="M 0,660 H 660 V 0 H 0 Z"
         transform="translate(-331.48141,-390.73971)"
         id="path82" />
    </clipPath>
    <clipPath
       clipPathUnits="userSpaceOnUse"
       id="clipPath84">
      <path
         d="M 0,660 H 660 V 0 H 0 Z"
         transform="translate(-331.48341,-317.93751)"
         id="path84" />
    </clipPath>
    <clipPath
       clipPathUnits="userSpaceOnUse"
       id="clipPath86">
      <path
         d="M 0,660 H 660 V 0 H 0 Z"
         transform="translate(-331.48341,-333.53271)"
         id="path86" />
    </clipPath>
    <clipPath
       clipPathUnits="userSpaceOnUse"
       id="clipPath88">
      <path
         d="M 0,660 H 660 V 0 H 0 Z"
         transform="translate(-318.13671,-512.11522)"
         id="path88" />
    </clipPath>
    <clipPath
       clipPathUnits="userSpaceOnUse"
       id="clipPath90">
      <path
         d="M 0,660 H 660 V 0 H 0 Z"
         transform="translate(-318.13771,-455.75541)"
         id="path90" />
    </clipPath>
    <clipPath
       clipPathUnits="userSpaceOnUse"
       id="clipPath92">
      <path
         d="M 0,660 H 660 V 0 H 0 Z"
         transform="translate(-318.13671,-467.82861)"
         id="path92" />
    </clipPath>
  </defs>
  <sodipodi:namedview
     id="namedview1"
     pagecolor="#ffffff"
     bordercolor="#000000"
     borderopacity="0.25"
     inkscape:showpageshadow="2"
     inkscape:pageopacity="0.0"
     inkscape:pagecheckerboard="0"
     inkscape:deskcolor="#d1d1d1"
     inkscape:zoom="0.67272727"
     inkscape:cx="439.25676"
     inkscape:cy="440"
     inkscape:window-width="1440"
     inkscape:window-height="830"
     inkscape:window-x="-6"
     inkscape:window-y="-6"
     inkscape:window-maximized="1"
     inkscape:current-layer="layer-MC0">
    <inkscape:page
       x="0"
       y="0"
       inkscape:label="1"
       id="page1"
       width="880"
       height="880"
       margin="239.91333 77.146667 165.856 78.388"
       bleed="0" />
  </sodipodi:namedview>
  <g
     id="layer-MC0"
     inkscape:groupmode="layer"
     inkscape:label="publicdomainvectors.org">
    <path
       id="path1"
       d="m 0,0 209.027,120.681 c 33.528,19.358 71.908,19.358 105.434,0 L 466.54,32.879 C 478.614,25.91 485.524,13.94 485.524,0 c 0,-13.94 -6.91,-25.909 -18.984,-32.879 L 261.745,-151.118 C 174.498,-201.493 -87.248,-50.372 0,0"
       style="fill:#e4d5cf;fill-opacity:1;fill-rule:evenodd;stroke:none"
       transform="matrix(1.3333333,0,0,-1.3333333,155.4876,425.07747)"
       clip-path="url(#clipPath2)" />
    <path
       id="path3"
       d="m 0,0 174.923,100.991 c 33.529,19.357 71.908,19.357 105.438,0 L 415.524,22.954 451.42,24.939 V -19.69 c 0,-13.942 -6.91,-25.908 -18.981,-32.881 L 227.642,-170.809 c -75.079,-43.348 -279.365,62.512 -279.292,124.98 h -0.014 l 0.044,42.976 z"
       style="fill:#e4b327;fill-opacity:1;fill-rule:evenodd;stroke:none"
       transform="matrix(1.3333333,0,0,-1.3333333,147.2728,384.36387)"
       clip-path="url(#clipPath4)" />
    <path
       id="path5"
       d="m 0,0 c -13.05,10.402 -23.81,21.053 -31.24,31.361 v 72.163 L 0,105.251 Z M 45.374,-30.057 C 32.858,-23.066 21.059,-15.598 10.415,-7.9 v 83.293 h 34.959 z"
       style="fill:#f5c83f;fill-opacity:1;fill-rule:evenodd;stroke:none"
       transform="matrix(1.3333333,0,0,-1.3333333,135.1172,525.36973)"
       clip-path="url(#clipPath6)" />
    <path
       id="path7"
       d="m 0,0 c 4.026,-1.731 8.004,-3.722 11.916,-5.98 l 135.163,-78.036 35.897,1.985 v -44.63 c 0,-13.941 -6.911,-25.907 -18.982,-32.88 L -40.803,-277.779 c -36.289,-20.951 -102.759,-7.045 -161.752,19.97 l 42.445,-11.906 c 54.108,-15.176 106.651,-6.959 153.542,24.016 l 111.696,73.783 -169.915,-69.604 50.904,227.291 C -1.71,-5.376 -4.172,-3.971 0,0"
       style="fill:#cc9d18;fill-opacity:1;fill-rule:evenodd;stroke:none"
       transform="matrix(1.3333333,0,0,-1.3333333,505.1992,241.73693)"
       clip-path="url(#clipPath8)" />
    <path
       id="path9"
       d="m 0,0 209.026,120.683 c 33.529,19.357 71.908,19.357 105.438,0 L 466.542,32.881 C 478.613,25.909 485.523,13.941 485.523,0 c 0,-13.941 -6.91,-25.908 -18.981,-32.879 L 261.745,-151.118 C 174.497,-201.493 -87.249,-50.371 0,0"
       style="fill:#fde9a0;fill-opacity:1;fill-rule:evenodd;stroke:none"
       transform="matrix(1.3333333,0,0,-1.3333333,101.80213,351.11387)"
       clip-path="url(#clipPath10)" />
    <path
       id="path11"
       d="m 0,0 209.026,120.682 c 33.529,19.357 71.908,19.357 105.438,0 L 466.542,32.879 C 478.613,25.908 485.523,13.939 485.523,0 c 0,-13.941 -6.91,-25.909 -18.981,-32.879 L 261.745,-151.118 C 174.497,-201.491 -87.249,-50.372 0,0"
       style="fill:#f5c83f;fill-opacity:1;fill-rule:evenodd;stroke:none"
       transform="matrix(1.3333333,0,0,-1.3333333,101.80213,346.12173)"
       clip-path="url(#clipPath12)" />
    <path
       id="path13"
       d="m 0,0 c -4.034,-2.329 -8.752,-5.867 -9.863,-10.685 -3.205,-13.892 19.01,-35.754 28.017,-43.723 24.674,-21.831 56.853,-40.122 86.943,-53.28 25.65,-11.215 54.184,-20.641 81.998,-24.359 18.538,-2.481 43.072,-3.084 59.836,6.591 L 451.724,-7.215 c 7.488,4.323 11.575,11.4 11.575,20.047 0,8.646 -4.087,15.724 -11.575,20.047 l -152.078,87.803 c -28.942,16.71 -61.676,16.71 -90.618,0 z"
       style="fill:#fbd14a;fill-opacity:1;fill-rule:evenodd;stroke:none"
       transform="matrix(1.3333333,0,0,-1.3333333,111.67907,363.23107)"
       clip-path="url(#clipPath14)" />
    <path
       id="path15"
       d="m 0,0 c 36.975,0 66.943,-16.652 66.943,-37.19 0,-20.539 -29.968,-37.19 -66.943,-37.19 -36.972,0 -66.94,16.651 -66.94,37.19 C -66.94,-16.652 -36.972,0 0,0 m -67.236,-68.058 c -8.779,7.435 -14.572,15.86 -18.383,26.714 -5.863,16.711 -36.187,29.444 -72.711,29.444 -40.724,0 -73.738,-15.829 -73.738,-35.355 0,-11.217 10.898,-21.21 27.888,-27.687 12.547,-4.782 22.007,-12.338 29.451,-23.51 8.577,-12.873 30.788,-22.047 56.834,-22.047 33.479,0 60.622,15.154 60.622,33.845 0,6.868 -3.667,13.26 -9.963,18.596 m -218,3.639 c -42.097,0 -76.225,-16.551 -76.225,-36.965 0,-20.416 34.128,-36.965 76.225,-36.965 42.097,0 76.224,16.549 76.224,36.965 0,20.414 -34.127,36.965 -76.224,36.965 m -19.93,25.175 c -11.471,-15.058 -36.045,-25.467 -64.509,-25.467 -39.436,0 -71.406,19.981 -71.406,44.628 0,19.454 19.919,35.998 47.703,42.106 11.373,2.502 20.536,7.33 29.03,15.296 13.533,12.69 42.199,21.442 75.376,21.442 9.509,0 18.648,-0.719 27.164,-2.043 16.471,-2.561 31.534,0.964 45.156,10.57 11.77,8.301 30.28,13.652 51.095,13.652 35.566,0 64.4,-15.621 64.4,-34.891 0,-19.269 -28.834,-34.89 -64.4,-34.89 -3.788,0 -7.5,0.179 -11.106,0.517 -15.389,1.449 -29.087,-2.23 -41.678,-11.197 -10.586,-7.534 -26.876,-13.263 -46.115,-15.93 -16.802,-2.331 -30.432,-10.298 -40.71,-23.793"
       style="fill:#87b027;fill-opacity:1;fill-rule:evenodd;stroke:none"
       transform="matrix(1.3333333,0,0,-1.3333333,680.57813,319.72)"
       clip-path="url(#clipPath16)" />
    <path
       id="path17"
       d="m 0,0 c 8.231,0 16.056,-0.937 23.118,-2.623 7.218,-1.723 14.133,-0.262 20.038,4.235 9.177,6.991 22.338,12.239 37.606,14.696 6.799,1.094 12.242,4.587 16.074,10.312 2.599,3.885 6.554,7.368 11.518,10.247 3.646,2.115 5.704,5.776 5.61,9.992 -0.094,4.215 -2.314,7.781 -6.053,9.731 -11.226,5.852 -18.281,14.321 -18.281,23.742 0,17.664 24.809,31.983 55.413,31.983 27.97,0 51.099,-11.958 54.876,-27.5 2.327,-9.572 9.755,-16.424 19.485,-17.967 5.94,-0.942 11.518,-2.284 16.603,-3.958 5.691,-1.876 11.184,-1.661 16.709,0.652 9.628,4.026 21.199,6.376 33.651,6.376 33.481,0 60.621,-16.982 60.621,-37.933 0,-5.679 -1.994,-11.068 -5.57,-15.905 -6.882,-9.309 -6.203,-21.896 1.638,-30.411 3.477,-3.771 5.419,-7.99 5.419,-12.446 0,-16.022 -25.14,-29.009 -56.156,-29.009 -31.014,0 -56.157,12.987 -56.157,29.009 0,0.814 0.065,1.618 0.191,2.414 1.201,7.519 -0.924,14.495 -6.115,20.065 -5.19,5.572 -11.996,8.187 -19.581,7.522 -3.828,-0.333 -7.773,-0.51 -11.798,-0.51 -0.225,0 -0.45,10e-4 -0.675,10e-4 -5.53,0.027 -10.288,-1.576 -14.675,-4.941 -0.551,-0.424 -1.123,-0.838 -1.712,-1.242 -6.509,-4.475 -10.149,-11.177 -10.359,-19.073 -0.008,-0.32 -0.024,-0.642 -0.045,-0.961 -0.736,-10.698 5.386,-20.232 15.419,-24.014 14.728,-5.556 24.623,-15.846 24.623,-27.626 0,-17.672 -22.272,-31.998 -49.745,-31.998 -24.978,0 -45.657,11.842 -49.208,27.272 -2.387,10.377 -10.903,17.691 -21.522,18.482 -12.767,0.951 -24.466,3.803 -34.156,8.032 -6.496,2.832 -13.183,2.759 -19.614,-0.222 -9.971,-4.62 -22.972,-7.417 -37.19,-7.417 -31.425,0 -56.901,13.655 -56.901,30.495 C -56.901,-13.654 -31.425,0 0,0"
       style="fill:#9ac421;fill-opacity:1;fill-rule:evenodd;stroke:none"
       transform="matrix(1.3333333,0,0,-1.3333333,201.07493,363.36067)"
       clip-path="url(#clipPath18)" />
    <path
       id="path19"
       d="M 0,0 C 25.99,0 47.188,12.413 47.188,27.63 47.188,42.849 25.99,55.261 0,55.261 -25.99,55.261 -47.188,42.849 -47.188,27.63 -47.188,12.413 -25.99,0 0,0"
       style="fill:#adda1a;fill-opacity:1;fill-rule:evenodd;stroke:none"
       transform="matrix(1.3333333,0,0,-1.3333333,283.95773,373.77347)"
       clip-path="url(#clipPath20)" />
    <path
       id="path21"
       d="M 0,0 C 24.137,0 43.824,10.624 43.824,23.652 43.824,36.678 24.137,47.304 0,47.304 -24.14,47.304 -43.825,36.678 -43.825,23.652 -43.825,10.624 -24.14,0 0,0"
       style="fill:#adda1a;fill-opacity:1;fill-rule:evenodd;stroke:none"
       transform="matrix(1.3333333,0,0,-1.3333333,579.5208,312.78)"
       clip-path="url(#clipPath22)" />
    <path
       id="path23"
       d="m 0,0 c 19.821,0 35.988,6.467 35.988,14.395 0,7.93 -16.167,14.397 -35.988,14.397 -19.823,0 -35.99,-6.467 -35.99,-14.397 C -35.99,6.467 -19.823,0 0,0"
       style="fill:#adda1a;fill-opacity:1;fill-rule:evenodd;stroke:none"
       transform="matrix(1.3333333,0,0,-1.3333333,429.63933,237.20373)"
       clip-path="url(#clipPath24)" />
    <path
       id="path25"
       d="m 0,0 c 32.055,0 59.331,-11.108 69.515,-26.632 h 4.272 v -13.474 c 0,-22.149 -33.035,-40.103 -73.787,-40.103 -40.751,0 -73.787,17.954 -73.787,40.103 v 13.474 h 4.273 C -59.33,-11.108 -32.053,0 0,0"
       style="fill:#d13622;fill-opacity:1;fill-rule:evenodd;stroke:none"
       transform="matrix(1.3333333,0,0,-1.3333333,264.5124,295.95253)"
       clip-path="url(#clipPath26)" />
    <path
       id="path27"
       d="M 0,0 C 40.641,0 73.788,18.017 73.788,40.107 73.788,62.195 40.641,80.212 0,80.212 -40.642,80.212 -73.789,62.195 -73.789,40.107 -73.789,18.017 -40.642,0 0,0"
       style="fill:#ef431e;fill-opacity:1;fill-rule:evenodd;stroke:none"
       transform="matrix(1.3333333,0,0,-1.3333333,264.5156,384.93493)"
       clip-path="url(#clipPath28)" />
    <path
       id="path29"
       d="m 0,0 c -41.736,-7.729 -37.375,-35.952 -0.336,-47.808 2.609,-0.835 5.239,-0.006 7.075,2.232 1.84,2.238 2.358,5.244 1.398,8.09 -2.985,8.848 -3.384,17.858 -0.408,27.072 0.87,2.694 0.434,5.488 -1.201,7.69 C 4.893,-0.522 2.522,0.467 0,0"
       style="fill:#b72f21;fill-opacity:1;fill-rule:evenodd;stroke:none"
       transform="matrix(1.3333333,0,0,-1.3333333,228.93293,297.6868)"
       clip-path="url(#clipPath30)" />
    <path
       id="path31"
       d="M 0,0 C 2.462,0 4.47,1.184 4.47,2.635 4.47,4.085 2.462,5.27 0,5.27 -2.462,5.27 -4.471,4.085 -4.471,2.635 -4.471,1.184 -2.462,0 0,0"
       style="fill:#fab40a;fill-opacity:1;fill-rule:evenodd;stroke:none"
       transform="matrix(1.3333333,0,0,-1.3333333,224.67973,313.808)"
       clip-path="url(#clipPath32)" />
    <path
       id="path33"
       d="M 0,0 C 2.461,0 4.47,1.184 4.47,2.635 4.47,4.085 2.461,5.27 0,5.27 -2.462,5.27 -4.471,4.085 -4.471,2.635 -4.471,1.184 -2.462,0 0,0"
       style="fill:#fab40a;fill-opacity:1;fill-rule:evenodd;stroke:none"
       transform="matrix(1.3333333,0,0,-1.3333333,213.89,322.67573)"
       clip-path="url(#clipPath34)" />
    <path
       id="path35"
       d="M 0,0 C 2.462,0 4.471,1.183 4.471,2.634 4.471,4.083 2.462,5.268 0,5.268 -2.462,5.268 -4.47,4.083 -4.47,2.634 -4.47,1.183 -2.462,0 0,0"
       style="fill:#fab40a;fill-opacity:1;fill-rule:evenodd;stroke:none"
       transform="matrix(1.3333333,0,0,-1.3333333,212.34707,333.6152)"
       clip-path="url(#clipPath36)" />
    <path
       id="path37"
       d="M 0,0 C 2.461,0 4.47,1.184 4.47,2.633 4.47,4.085 2.461,5.268 0,5.268 -2.462,5.268 -4.471,4.085 -4.471,2.633 -4.471,1.184 -2.462,0 0,0"
       style="fill:#fab40a;fill-opacity:1;fill-rule:evenodd;stroke:none"
       transform="matrix(1.3333333,0,0,-1.3333333,216.56053,345.01827)"
       clip-path="url(#clipPath38)" />
    <path
       id="path39"
       d="M 0,0 C 2.462,0 4.47,1.183 4.47,2.635 4.47,4.084 2.462,5.268 0,5.268 -2.462,5.268 -4.47,4.084 -4.47,2.635 -4.47,1.183 -2.462,0 0,0"
       style="fill:#fab40a;fill-opacity:1;fill-rule:evenodd;stroke:none"
       transform="matrix(1.3333333,0,0,-1.3333333,225.60227,352.96413)"
       clip-path="url(#clipPath40)" />
    <path
       id="path41"
       d="m 0,0 c 41.737,-7.729 37.375,-35.952 0.336,-47.808 -2.609,-0.835 -5.238,-0.006 -7.075,2.232 -1.84,2.238 -2.358,5.244 -1.398,8.09 2.986,8.848 3.384,17.858 0.408,27.072 -0.871,2.694 -0.433,5.488 1.201,7.69 C -4.893,-0.522 -2.522,0.467 0,0"
       style="fill:#b72f21;fill-opacity:1;fill-rule:evenodd;stroke:none"
       transform="matrix(1.3333333,0,0,-1.3333333,295.39387,297.6868)"
       clip-path="url(#clipPath42)" />
    <path
       id="path43"
       d="M 0,0 C 2.461,0 4.471,1.184 4.471,2.635 4.471,4.085 2.461,5.27 0,5.27 -2.462,5.27 -4.471,4.085 -4.471,2.635 -4.471,1.184 -2.462,0 0,0"
       style="fill:#fab40a;fill-opacity:1;fill-rule:evenodd;stroke:none"
       transform="matrix(1.3333333,0,0,-1.3333333,299.64907,313.808)"
       clip-path="url(#clipPath44)" />
    <path
       id="path45"
       d="M 0,0 C 2.462,0 4.47,1.184 4.47,2.635 4.47,4.085 2.462,5.27 0,5.27 -2.461,5.27 -4.47,4.085 -4.47,2.635 -4.47,1.184 -2.461,0 0,0"
       style="fill:#fab40a;fill-opacity:1;fill-rule:evenodd;stroke:none"
       transform="matrix(1.3333333,0,0,-1.3333333,310.43813,322.67573)"
       clip-path="url(#clipPath46)" />
    <path
       id="path47"
       d="M 0,0 C 2.461,0 4.47,1.183 4.47,2.634 4.47,4.083 2.461,5.268 0,5.268 -2.463,5.268 -4.472,4.083 -4.472,2.634 -4.472,1.183 -2.463,0 0,0"
       style="fill:#fab40a;fill-opacity:1;fill-rule:evenodd;stroke:none"
       transform="matrix(1.3333333,0,0,-1.3333333,311.98307,333.6152)"
       clip-path="url(#clipPath48)" />
    <path
       id="path49"
       d="M 0,0 C 2.462,0 4.47,1.184 4.47,2.633 4.47,4.085 2.462,5.268 0,5.268 -2.461,5.268 -4.47,4.085 -4.47,2.633 -4.47,1.184 -2.461,0 0,0"
       style="fill:#fab40a;fill-opacity:1;fill-rule:evenodd;stroke:none"
       transform="matrix(1.3333333,0,0,-1.3333333,307.7676,345.01827)"
       clip-path="url(#clipPath50)" />
    <path
       id="path51"
       d="M 0,0 C 2.461,0 4.47,1.183 4.47,2.635 4.47,4.084 2.461,5.268 0,5.268 -2.462,5.268 -4.47,4.084 -4.47,2.635 -4.47,1.183 -2.462,0 0,0"
       style="fill:#fab40a;fill-opacity:1;fill-rule:evenodd;stroke:none"
       transform="matrix(1.3333333,0,0,-1.3333333,298.72587,352.96413)"
       clip-path="url(#clipPath52)" />
    <path
       id="path53"
       d="m 0,0 c 32.28,0 59.746,-11.187 70.003,-26.817 h 4.303 V -40.386 C 74.306,-62.69 41.037,-80.771 0,-80.771 c -41.035,0 -74.302,18.081 -74.302,40.385 v 13.569 H -70 C -59.744,-11.187 -32.277,0 0,0"
       style="fill:#d13622;fill-opacity:1;fill-rule:evenodd;stroke:none"
       transform="matrix(1.3333333,0,0,-1.3333333,608.418,281.77533)"
       clip-path="url(#clipPath54)" />
    <path
       id="path55"
       d="M 0,0 C 40.923,0 74.303,18.14 74.303,40.385 74.303,62.629 40.923,80.77 0,80.77 -40.927,80.77 -74.305,62.629 -74.305,40.385 -74.305,18.14 -40.927,0 0,0"
       style="fill:#ef431e;fill-opacity:1;fill-rule:evenodd;stroke:none"
       transform="matrix(1.3333333,0,0,-1.3333333,608.42187,371.37827)"
       clip-path="url(#clipPath56)" />
    <path
       id="path57"
       d="m 0,0 c -42.028,-7.781 -37.638,-36.204 -0.339,-48.141 2.626,-0.842 5.275,-0.007 7.126,2.246 1.85,2.254 2.374,5.281 1.407,8.146 -3.006,8.913 -3.407,17.985 -0.41,27.263 0.874,2.712 0.434,5.525 -1.21,7.743 C 4.928,-0.525 2.538,0.472 0,0"
       style="fill:#b72f21;fill-opacity:1;fill-rule:evenodd;stroke:none"
       transform="matrix(1.3333333,0,0,-1.3333333,572.5912,283.52347)"
       clip-path="url(#clipPath58)" />
    <path
       id="path59"
       d="M 0,0 C 2.479,0 4.5,1.191 4.5,2.653 4.5,4.114 2.479,5.305 0,5.305 -2.478,5.305 -4.503,4.114 -4.503,2.653 -4.503,1.191 -2.478,0 0,0"
       style="fill:#fab40a;fill-opacity:1;fill-rule:evenodd;stroke:none"
       transform="matrix(1.3333333,0,0,-1.3333333,568.30733,299.75653)"
       clip-path="url(#clipPath60)" />
    <path
       id="path61"
       d="M 0,0 C 2.478,0 4.5,1.191 4.5,2.652 4.5,4.114 2.478,5.307 0,5.307 -2.479,5.307 -4.503,4.114 -4.503,2.652 -4.503,1.191 -2.479,0 0,0"
       style="fill:#fab40a;fill-opacity:1;fill-rule:evenodd;stroke:none"
       transform="matrix(1.3333333,0,0,-1.3333333,557.44147,308.68613)"
       clip-path="url(#clipPath62)" />
    <path
       id="path63"
       d="M 0,0 C 2.478,0 4.499,1.191 4.499,2.652 4.499,4.114 2.478,5.305 0,5.305 -2.479,5.305 -4.503,4.114 -4.503,2.652 -4.503,1.191 -2.479,0 0,0"
       style="fill:#fab40a;fill-opacity:1;fill-rule:evenodd;stroke:none"
       transform="matrix(1.3333333,0,0,-1.3333333,555.88933,319.70373)"
       clip-path="url(#clipPath64)" />
    <path
       id="path65"
       d="M 0,0 C 2.48,0 4.5,1.191 4.5,2.652 4.5,4.113 2.48,5.305 0,5.305 -2.481,5.305 -4.502,4.113 -4.502,2.652 -4.502,1.191 -2.481,0 0,0"
       style="fill:#fab40a;fill-opacity:1;fill-rule:evenodd;stroke:none"
       transform="matrix(1.3333333,0,0,-1.3333333,560.13147,331.18427)"
       clip-path="url(#clipPath66)" />
    <path
       id="path67"
       d="M 0,0 C 2.482,0 4.503,1.191 4.503,2.653 4.503,4.115 2.482,5.307 0,5.307 -2.478,5.307 -4.5,4.115 -4.5,2.653 -4.5,1.191 -2.478,0 0,0"
       style="fill:#fab40a;fill-opacity:1;fill-rule:evenodd;stroke:none"
       transform="matrix(1.3333333,0,0,-1.3333333,569.23307,339.18813)"
       clip-path="url(#clipPath68)" />
    <path
       id="path69"
       d="m 0,0 c 42.028,-7.781 37.636,-36.204 0.341,-48.141 -2.628,-0.842 -5.275,-0.007 -7.125,2.246 -1.854,2.254 -2.374,5.281 -1.407,8.146 3.006,8.913 3.407,17.985 0.41,27.263 -0.877,2.712 -0.438,5.525 1.21,7.743 C -4.925,-0.525 -2.539,0.472 0,0"
       style="fill:#b72f21;fill-opacity:1;fill-rule:evenodd;stroke:none"
       transform="matrix(1.3333333,0,0,-1.3333333,639.51427,283.52347)"
       clip-path="url(#clipPath70)" />
    <path
       id="path71"
       d="M 0,0 C 2.479,0 4.5,1.191 4.5,2.653 4.5,4.114 2.479,5.305 0,5.305 -2.479,5.305 -4.502,4.114 -4.502,2.653 -4.502,1.191 -2.479,0 0,0"
       style="fill:#fab40a;fill-opacity:1;fill-rule:evenodd;stroke:none"
       transform="matrix(1.3333333,0,0,-1.3333333,643.8008,299.75653)"
       clip-path="url(#clipPath72)" />
    <path
       id="path73"
       d="M 0,0 C 2.482,0 4.503,1.191 4.503,2.652 4.503,4.114 2.482,5.307 0,5.307 -2.478,5.307 -4.499,4.114 -4.499,2.652 -4.499,1.191 -2.478,0 0,0"
       style="fill:#fab40a;fill-opacity:1;fill-rule:evenodd;stroke:none"
       transform="matrix(1.3333333,0,0,-1.3333333,654.6628,308.68613)"
       clip-path="url(#clipPath74)" />
    <path
       id="path75"
       d="M 0,0 C 2.479,0 4.5,1.191 4.5,2.652 4.5,4.114 2.479,5.305 0,5.305 -2.481,5.305 -4.503,4.114 -4.503,2.652 -4.503,1.191 -2.481,0 0,0"
       style="fill:#fab40a;fill-opacity:1;fill-rule:evenodd;stroke:none"
       transform="matrix(1.3333333,0,0,-1.3333333,656.22,319.70373)"
       clip-path="url(#clipPath76)" />
    <path
       id="path77"
       d="M 0,0 C 2.479,0 4.5,1.191 4.5,2.652 4.5,4.113 2.479,5.305 0,5.305 -2.479,5.305 -4.503,4.113 -4.503,2.652 -4.503,1.191 -2.479,0 0,0"
       style="fill:#fab40a;fill-opacity:1;fill-rule:evenodd;stroke:none"
       transform="matrix(1.3333333,0,0,-1.3333333,651.97653,331.18427)"
       clip-path="url(#clipPath78)" />
    <path
       id="path79"
       d="M 0,0 C 2.479,0 4.5,1.191 4.5,2.653 4.5,4.115 2.479,5.307 0,5.307 -2.479,5.307 -4.503,4.115 -4.503,2.653 -4.503,1.191 -2.479,0 0,0"
       style="fill:#fab40a;fill-opacity:1;fill-rule:evenodd;stroke:none"
       transform="matrix(1.3333333,0,0,-1.3333333,642.87107,339.18813)"
       clip-path="url(#clipPath80)" />
    <path
       id="path81"
       d="m 0,0 c 34.969,0 64.724,-12.121 75.834,-29.053 h 4.661 v -14.698 c 0,-24.162 -36.038,-43.75 -80.495,-43.75 -44.454,0 -80.492,19.588 -80.492,43.75 v 14.698 h 4.662 C -64.723,-12.121 -34.967,0 0,0"
       style="fill:#faf462;fill-opacity:1;fill-rule:evenodd;stroke:none"
       transform="matrix(1.3333333,0,0,-1.3333333,441.9752,359.01373)"
       clip-path="url(#clipPath82)" />
    <path
       id="path83"
       d="m 0,0 c 44.335,0 80.496,19.653 80.496,43.751 0,24.096 -36.161,43.75 -80.496,43.75 -44.333,0 -80.494,-19.654 -80.494,-43.75 C -80.494,19.653 -44.333,0 0,0"
       style="fill:#fdfbb4;fill-opacity:1;fill-rule:evenodd;stroke:none"
       transform="matrix(1.3333333,0,0,-1.3333333,441.97787,456.08333)"
       clip-path="url(#clipPath84)" />
    <path
       id="path85"
       d="M 0,0 C 28.532,0 51.802,12.648 51.802,28.156 51.802,43.663 28.532,56.311 0,56.311 -28.532,56.311 -51.8,43.663 -51.8,28.156 -51.8,12.648 -28.532,0 0,0"
       style="fill:#fab40a;fill-opacity:1;fill-rule:evenodd;stroke:none"
       transform="matrix(1.3333333,0,0,-1.3333333,441.97787,435.28973)"
       clip-path="url(#clipPath86)" />
    <path
       id="path87"
       d="m 0,0 c 27.07,0 50.105,-9.383 58.706,-22.492 h 3.608 V -33.87 c 0,-18.706 -27.899,-33.868 -62.314,-33.868 -34.415,0 -62.315,15.162 -62.315,33.868 v 11.378 h 3.609 C -50.106,-9.383 -27.071,0 0,0"
       style="fill:#faf462;fill-opacity:1;fill-rule:evenodd;stroke:none"
       transform="matrix(1.3333333,0,0,-1.3333333,424.18227,197.17973)"
       clip-path="url(#clipPath88)" />
    <path
       id="path89"
       d="M 0,0 C 34.322,0 62.315,15.215 62.315,33.87 62.315,52.524 34.322,67.739 0,67.739 -34.322,67.739 -62.314,52.524 -62.314,33.87 -62.314,15.215 -34.322,0 0,0"
       style="fill:#fdfbb4;fill-opacity:1;fill-rule:evenodd;stroke:none"
       transform="matrix(1.3333333,0,0,-1.3333333,424.1836,272.32613)"
       clip-path="url(#clipPath90)" />
    <path
       id="path91"
       d="M 0,0 C 22.087,0 40.103,9.791 40.103,21.796 40.103,33.801 22.087,43.592 0,43.592 -22.086,43.592 -40.101,33.801 -40.101,21.796 -40.101,9.791 -22.086,0 0,0"
       style="fill:#fab40a;fill-opacity:1;fill-rule:evenodd;stroke:none"
       transform="matrix(1.3333333,0,0,-1.3333333,424.18227,256.22853)"
       clip-path="url(#clipPath92)" />
  </g>
</svg>
